<svg xmlns="http://www.w3.org/2000/svg" viewBox="0 0 32 32"><rect width="32" height="32" fill="#0d0d0c"/><path d="M19.92,16.21 Q19.90,16.00 19.92,16.21 Q19.94,16.41 19.91,16.62 Q19.87,16.82 19.78,17.01 Q19.69,17.20 19.56,17.36 Q19.44,17.53 19.29,17.67 Q19.14,17.81 18.99,17.94 Q18.84,18.06 18.69,18.17 Q18.54,18.29 18.39,18.39 Q18.25,18.50 18.10,18.60 Q17.96,18.70 17.82,18.79 Q17.67,18.89 17.51,18.97 Q17.36,19.05 17.20,19.11 Q17.03,19.17 16.86,19.21 Q16.69,19.25 16.52,19.26 Q16.34,19.27 16.17,19.27 Q16.00,19.26 15.83,19.25 Q15.66,19.24 15.49,19.22 Q15.32,19.21 15.14,19.19 Q14.97,19.18 14.78,19.17 Q14.59,19.16 14.39,19.15 Q14.19,19.13 13.99,19.09 Q13.79,19.05 13.59,18.97 Q13.39,18.90 13.21,18.78 Q13.04,18.67 12.90,18.51 Q12.76,18.35 12.68,18.16 Q12.59,17.97 12.56,17.76 Q12.53,17.55 12.55,17.33 Q12.56,17.12 12.61,16.91 Q12.66,16.71 12.72,16.52 Q12.79,16.34 12.85,16.17 Q12.90,16.00 12.94,15.84 Q12.98,15.68 13.00,15.52 Q13.02,15.37 13.03,15.20 Q13.03,15.04 13.04,14.86 Q13.04,14.68 13.06,14.50 Q13.08,14.31 13.13,14.13 Q13.17,13.95 13.26,13.77 Q13.34,13.60 13.45,13.45 Q13.56,13.29 13.71,13.17 Q13.85,13.04 14.01,12.93 Q14.17,12.83 14.34,12.74 Q14.51,12.66 14.69,12.59 Q14.87,12.52 15.05,12.46 Q15.23,12.40 15.42,12.36 Q15.61,12.31 15.81,12.29 Q16.00,12.26 16.20,12.27 Q16.39,12.27 16.58,12.32 Q16.77,12.36 16.95,12.44 Q17.13,12.53 17.28,12.65 Q17.44,12.77 17.57,12.92 Q17.69,13.06 17.80,13.22 Q17.90,13.38 17.99,13.54 Q18.07,13.70 18.16,13.84 Q18.24,13.98 18.33,14.11 Q18.43,14.24 18.54,14.35 Q18.65,14.47 18.79,14.58 Q18.92,14.70 19.07,14.83 Q19.22,14.95 19.36,15.10 Q19.51,15.25 19.63,15.43 Q19.75,15.61 19.83,15.80Z" fill="none" stroke="rgba(229,224,216,0.75)" stroke-width="0.55"/><path d="M23.26,16.38 Q23.27,16.00 23.26,16.38 Q23.25,16.76 23.11,17.12 Q22.96,17.48 22.71,17.79 Q22.45,18.10 22.14,18.35 Q21.83,18.60 21.53,18.81 Q21.23,19.02 20.98,19.23 Q20.73,19.43 20.53,19.66 Q20.33,19.90 20.15,20.15 Q19.97,20.41 19.77,20.66 Q19.57,20.91 19.33,21.13 Q19.08,21.34 18.80,21.49 Q18.51,21.64 18.20,21.74 Q17.90,21.83 17.58,21.91 Q17.27,21.99 16.96,22.10 Q16.65,22.20 16.33,22.34 Q16.00,22.48 15.64,22.63 Q15.29,22.79 14.90,22.90 Q14.51,23.01 14.11,23.02 Q13.72,23.02 13.35,22.90 Q12.99,22.77 12.68,22.52 Q12.38,22.27 12.15,21.94 Q11.92,21.62 11.74,21.27 Q11.56,20.93 11.40,20.61 Q11.23,20.29 11.06,20.00 Q10.89,19.71 10.71,19.44 Q10.53,19.16 10.38,18.86 Q10.23,18.57 10.15,18.25 Q10.06,17.93 10.05,17.60 Q10.04,17.27 10.09,16.94 Q10.15,16.62 10.21,16.31 Q10.27,16.00 10.30,15.70 Q10.32,15.40 10.29,15.09 Q10.25,14.78 10.17,14.43 Q10.09,14.08 10.02,13.69 Q9.96,13.31 9.96,12.91 Q9.97,12.52 10.09,12.16 Q10.21,11.79 10.44,11.49 Q10.67,11.20 10.97,10.97 Q11.27,10.75 11.60,10.57 Q11.93,10.40 12.25,10.24 Q12.58,10.08 12.90,9.92 Q13.22,9.76 13.55,9.62 Q13.88,9.47 14.22,9.37 Q14.57,9.28 14.93,9.27 Q15.29,9.27 15.65,9.37 Q16.00,9.48 16.32,9.67 Q16.65,9.86 16.93,10.07 Q17.21,10.29 17.47,10.48 Q17.74,10.66 18.00,10.78 Q18.27,10.89 18.58,10.95 Q18.88,11.01 19.22,11.05 Q19.56,11.10 19.91,11.18 Q20.26,11.27 20.58,11.43 Q20.89,11.59 21.15,11.83 Q21.40,12.07 21.60,12.36 Q21.79,12.66 21.95,12.97 Q22.11,13.28 22.27,13.60 Q22.42,13.91 22.59,14.24 Q22.76,14.56 22.92,14.91 Q23.07,15.26 23.17,15.63Z" fill="none" stroke="rgba(229,224,216,0.75)" stroke-width="0.55"/><path d="M25.84,16.50 Q26.11,16.00 25.84,16.50 Q25.56,17.00 25.14,17.43 Q24.72,17.85 24.36,18.23 Q23.99,18.60 23.82,19.00 Q23.65,19.40 23.62,19.89 Q23.59,20.38 23.54,20.91 Q23.49,21.44 23.30,21.92 Q23.10,22.39 22.78,22.78 Q22.45,23.17 22.08,23.51 Q21.71,23.86 21.33,24.21 Q20.94,24.56 20.52,24.89 Q20.10,25.21 19.63,25.47 Q19.16,25.72 18.65,25.91 Q18.15,26.09 17.62,26.28 Q17.10,26.47 16.55,26.66 Q16.00,26.86 15.42,26.96 Q14.84,27.06 14.28,26.91 Q13.71,26.76 13.25,26.33 Q12.78,25.91 12.43,25.36 Q12.07,24.82 11.76,24.36 Q11.44,23.90 11.08,23.58 Q10.72,23.26 10.32,23.01 Q9.92,22.75 9.55,22.45 Q9.18,22.14 8.89,21.76 Q8.61,21.37 8.37,20.96 Q8.14,20.54 7.90,20.13 Q7.66,19.71 7.44,19.28 Q7.22,18.85 7.07,18.39 Q6.92,17.93 6.84,17.45 Q6.75,16.97 6.63,16.49 Q6.51,16.00 6.29,15.48 Q6.06,14.96 5.81,14.37 Q5.55,13.78 5.45,13.16 Q5.35,12.54 5.55,11.99 Q5.74,11.43 6.18,11.01 Q6.62,10.58 7.13,10.25 Q7.63,9.92 8.08,9.60 Q8.54,9.28 8.94,8.94 Q9.34,8.60 9.76,8.30 Q10.19,8.00 10.66,7.79 Q11.14,7.58 11.64,7.45 Q12.13,7.31 12.62,7.20 Q13.10,7.08 13.59,7.00 Q14.07,6.92 14.56,6.95 Q15.05,6.97 15.53,7.12 Q16.00,7.26 16.44,7.41 Q16.89,7.57 17.34,7.58 Q17.79,7.58 18.31,7.43 Q18.84,7.27 19.44,7.09 Q20.04,6.92 20.64,6.92 Q21.24,6.92 21.74,7.16 Q22.24,7.41 22.64,7.80 Q23.03,8.19 23.39,8.61 Q23.75,9.02 24.11,9.44 Q24.46,9.85 24.79,10.30 Q25.11,10.74 25.34,11.24 Q25.57,11.74 25.72,12.27 Q25.86,12.79 25.98,13.32 Q26.10,13.85 26.17,14.39 Q26.24,14.92 26.18,15.46Z" fill="none" stroke="rgba(229,224,216,0.75)" stroke-width="0.55"/><path d="M29.35,16.69 Q29.49,16.00 29.35,16.69 Q29.21,17.39 29.13,18.08 Q29.06,18.78 29.17,19.54 Q29.28,20.31 29.34,21.14 Q29.39,21.96 29.10,22.68 Q28.82,23.40 28.22,23.92 Q27.62,24.44 26.94,24.84 Q26.26,25.24 25.60,25.58 Q24.93,25.92 24.22,26.12 Q23.50,26.32 22.74,26.34 Q21.98,26.37 21.33,26.43 Q20.67,26.49 20.14,26.79 Q19.61,27.10 19.07,27.52 Q18.54,27.95 17.92,28.16 Q17.30,28.37 16.65,28.28 Q16.00,28.19 15.37,28.05 Q14.75,27.91 14.11,27.89 Q13.48,27.88 12.81,27.86 Q12.15,27.85 11.50,27.72 Q10.84,27.58 10.17,27.42 Q9.50,27.26 8.71,27.19 Q7.92,27.12 7.05,27.01 Q6.19,26.90 5.50,26.48 Q4.81,26.07 4.48,25.34 Q4.14,24.62 4.01,23.80 Q3.89,22.99 3.75,22.26 Q3.61,21.52 3.46,20.82 Q3.31,20.12 3.30,19.41 Q3.29,18.70 3.38,18.01 Q3.48,17.32 3.48,16.66 Q3.49,16.00 3.42,15.34 Q3.36,14.67 3.49,14.02 Q3.62,13.37 4.09,12.82 Q4.55,12.28 5.10,11.83 Q5.64,11.39 5.97,10.89 Q6.30,10.40 6.44,9.78 Q6.58,9.16 6.76,8.50 Q6.94,7.84 7.24,7.22 Q7.54,6.60 7.88,5.94 Q8.21,5.28 8.60,4.57 Q8.98,3.85 9.54,3.29 Q10.09,2.73 10.83,2.55 Q11.57,2.37 12.35,2.44 Q13.13,2.52 13.86,2.51 Q14.58,2.51 15.29,2.35 Q16.00,2.19 16.73,2.12 Q17.47,2.05 18.17,2.25 Q18.88,2.44 19.53,2.79 Q20.18,3.13 20.80,3.48 Q21.42,3.83 21.96,4.28 Q22.50,4.74 22.85,5.41 Q23.20,6.09 23.39,6.83 Q23.59,7.58 23.86,8.13 Q24.14,8.67 24.65,9.00 Q25.17,9.33 25.79,9.66 Q26.41,9.99 26.88,10.47 Q27.36,10.94 27.70,11.52 Q28.03,12.09 28.38,12.69 Q28.72,13.30 29.03,13.95 Q29.34,14.60 29.41,15.30Z" fill="none" stroke="rgba(229,224,216,0.75)" stroke-width="0.55"/><circle cx="16" cy="16" r="0.9" fill="rgba(229,224,216,0.75)"/></svg>
